<svg xmlns="http://www.w3.org/2000/svg" viewBox="0 0 24 24" fill="#FFFFFF">
  <path fill-rule="evenodd" clip-rule="evenodd" d="M12 2C6.48 2 2 6.58 2 12.26c0 4.5 2.87 8.32 6.84 9.67.5.09.68-.22.68-.48v-1.68c-2.78.62-3.37-1.36-3.37-1.36-.46-1.18-1.11-1.49-1.11-1.49-.9-.63.07-.62.07-.62 1 .07 1.53 1.05 1.53 1.05.89 1.55 2.34 1.1 2.91.85.09-.67.35-1.1.63-1.36-2.22-.26-4.56-1.12-4.56-4.97 0-1.1.39-2 1.03-2.7-.1-.26-.45-1.27.1-2.64 0 0 .84-.28 2.75 1.05a9.38 9.38 0 0 1 5 0c1.9-1.33 2.75-1.05 2.75-1.05.55 1.37.2 2.38.1 2.64.64.7 1.03 1.6 1.03 2.7 0 3.86-2.34 4.71-4.57 4.97.36.31.68.93.68 1.88v2.78c0 .26.18.57.69.47A10.01 10.01 0 0 0 22 12.26C22 6.58 17.52 2 12 2Z"/>
</svg>
